<?xml version="1.0" encoding="UTF-8"?>
<svg id="Layer_1" data-name="Layer 1" xmlns="http://www.w3.org/2000/svg" xmlns:xlink="http://www.w3.org/1999/xlink" viewBox="0 0 401.22 102.27">
  <defs>
    <style>
      .cls-1 {
        fill: url(#linear-gradient-5);
      }

      .cls-2 {
        fill: url(#linear-gradient-6);
      }

      .cls-3 {
        fill: url(#linear-gradient-4);
      }

      .cls-4 {
        fill: url(#linear-gradient-3);
      }

      .cls-5 {
        fill: url(#linear-gradient-2);
      }

      .cls-6 {
        fill: url(#linear-gradient);
      }
    </style>
    <linearGradient id="linear-gradient" x1="0" y1="50.12" x2="86.45" y2="50.12" gradientUnits="userSpaceOnUse">
      <stop offset="0" stop-color="#3fdcff"/>
      <stop offset="1" stop-color="#55ff8f"/>
    </linearGradient>
    <linearGradient id="linear-gradient-2" x1="101.59" y1="64.67" x2="141.91" y2="64.67" xlink:href="#linear-gradient"/>
    <linearGradient id="linear-gradient-3" x1="156.51" y1="66.09" x2="215.63" y2="66.09" xlink:href="#linear-gradient"/>
    <linearGradient id="linear-gradient-4" x1="229.16" y1="66.56" x2="292.74" y2="66.56" xlink:href="#linear-gradient"/>
    <linearGradient id="linear-gradient-5" x1="304.91" y1="66.09" x2="364.03" y2="66.09" xlink:href="#linear-gradient"/>
    <linearGradient id="linear-gradient-6" x1="380.53" y1="50.66" x2="401.22" y2="50.66" xlink:href="#linear-gradient"/>
  </defs>
  <path class="cls-6" d="M0,100.25v-.27c5.82-6.22,7.98-10.42,12.72-23.4L40.72,0h5.14l28.14,77.25c5.01,13.53,7.44,17.45,12.44,22.73v.27h-24.62v-.27c2.97-3.52,4.73-10.82.13-23.27l-21.78-59.93-20.56,56.55c-5.41,14.75-2.3,22.59,1.22,26.65v.27H0Z"/>
  <path class="cls-5" d="M104.43,99.97c2.98-6.76,3.65-12.85,3.65-23.54v-25.16c0-7.31-3.11-11.5-6.49-14.34v-.27l16.5-7.57v17.18l.68.14c6.49-6.63,13.26-16.64,23.13-16.5l-.14,14.47-1.22.14c-2.3-.81-7.31-1.62-10.55-1.62-2.44,0-7.31,4.06-11.23,9.2v24.21c0,10.69.14,16.91,3.52,23.67v.27h-17.86v-.27Z"/>
  <path class="cls-4" d="M213.47,83.06l2.16,1.49c-4.33,10.15-13.94,17.72-27.6,17.72-18.8,0-31.52-14.07-31.52-35.04,0-23,15.42-37.34,32.74-37.34s27.6,13.66,25.97,29.9h-47.35c-.14,1.08-.14,2.3-.14,3.52,0,18.13,9.06,29.63,25.16,29.63,7.98,0,15.56-2.84,20.56-9.87ZM168.42,55.19l35.17-.68v-1.22c0-12.72-5.41-18.4-14.74-18.4-10.55,0-18.26,7.71-20.43,20.29Z"/>
  <path class="cls-3" d="M262.57,101.19h-3.38l-20.56-51.82c-3.92-9.87-5.55-13.8-9.47-17.04v-.4h21.65v.4c-3.65,2.98-3.79,8.93-.81,16.78l13.94,35.71,12.99-33.14c3.79-9.6,2.3-16.23-1.35-19.35v-.4h17.18v.4c-4.73,4.19-6.09,8.25-9.87,17.72l-20.29,51.14Z"/>
  <path class="cls-1" d="M361.87,83.06l2.16,1.49c-4.33,10.15-13.94,17.72-27.6,17.72-18.8,0-31.52-14.07-31.52-35.04,0-23,15.42-37.34,32.74-37.34s27.6,13.66,25.97,29.9h-47.35c-.14,1.08-.14,2.3-.14,3.52,0,18.13,9.06,29.63,25.16,29.63,7.98,0,15.56-2.84,20.56-9.87ZM316.82,55.19l35.17-.68v-1.22c0-12.72-5.41-18.4-14.74-18.4-10.55,0-18.26,7.71-20.43,20.29Z"/>
  <path class="cls-2" d="M383.37,99.97c2.57-6.76,3.65-12.99,3.65-23.54v-24.89c0-7.04-3.11-11.5-6.49-14.21v-.68l17.18-7.57v47.21c0,10.55.14,16.91,3.52,23.67v.27h-17.86v-.27ZM384.32,8.52c0-4.19,3.38-7.44,7.31-7.44,4.19,0,7.57,3.25,7.57,7.44s-3.38,7.31-7.57,7.31c-3.92,0-7.31-3.11-7.31-7.31Z"/>
</svg>